# xmcd
#
# Track frame offsets:
#	150
#	10627
#	23795
#	39442
#	45862
#	65012
#	78380
#
# Disc length: 1303 seconds
#
# Revision: 0
# Processed by: cddbd v1.5.1PL0 Copyright (c) Steve Scherf et al.
# Submitted via: audiograbber 1.83.01
#
DISCID=45051507
DTITLE=The Valley Arena - Kinetic Aesthetic
DYEAR=2003
DGENRE=Rock
TTITLE0=Piano Wire
TTITLE1=Icicles
TTITLE2=Softly Through the Windshield
TTITLE3=We Heard About Your Accident
TTITLE4=Oh Novocaine
TTITLE5=The Actress
TTITLE6=The Metal of Your Teeth
EXTD=
EXTT0=
EXTT1=
EXTT2=
EXTT3=
EXTT4=
EXTT5=
EXTT6=
PLAYORDER=
